<?xml version="1.0" encoding="UTF-8"?>
<svg id="Capa_2" xmlns="http://www.w3.org/2000/svg" viewBox="0 0 100.2 100.13">
  <defs>
    <style>
      .cls-1 {
        fill: none;
        stroke: #f3f0bd;
        stroke-miterlimit: 10;
        stroke-width: 5px;
      }
    </style>
  </defs>
  <g id="OBJECTS">
    <path class="cls-1" d="M62.98,35.42l-10.37-31.11c-.81-2.42-4.23-2.42-5.03,0l-10.37,31.11c-.26.79-.88,1.41-1.67,1.68l-31.23,10.45c-2.41.81-2.41,4.22,0,5.03l31.23,10.45c.79.26,1.41.89,1.67,1.68l10.37,31.11c.81,2.42,4.23,2.42,5.03,0l10.37-31.11c.26-.79.88-1.41,1.67-1.68l31.23-10.45c2.41-.81,2.41-4.22,0-5.03l-31.23-10.45c-.79-.26-1.41-.89-1.67-1.68Z"/>
  </g>
</svg>