<?xml version="1.0" encoding="UTF-8"?>
<svg id="Capa_2" xmlns="http://www.w3.org/2000/svg" viewBox="0 0 230.48 224.98">
  <defs>
    <style>
      .cls-1 {
        fill: #fff;
      }

      .cls-2 {
        fill: #f46767;
      }

      .cls-3 {
        fill: #afbf55;
      }

      .cls-4 {
        fill: #534f70;
      }
    </style>
  </defs>
  <g id="OBJECTS">
    <g>
      <g>
        <g>
          <path class="cls-1" d="M214.34,109.35h-35.53l-.82-2.28h-21.89l.82,2.28h-33.17l-22.14-61.33c-1.48-4.06-5.38-6.8-9.69-6.8-1.16,0-2.33.21-3.48.62-5.33,1.91-8.1,7.82-6.18,13.17l19.63,54.34H16.14c-3.69,0-7.17,1.45-9.79,4.07-2.62,2.62-4.07,6.11-4.07,9.8,0,7.04,5.28,12.87,12.15,13.75l18.56,73.87c1.74,6.97,7.98,11.84,15.17,11.84h134.15c7.18,0,13.42-4.86,15.18-11.84l18.55-73.86c3.05-.37,5.86-1.75,8.08-3.96,2.63-2.63,4.08-6.12,4.08-9.8,0-7.66-6.23-13.88-13.88-13.88ZM119.37,149.33c1.1,1.09,1.72,2.56,1.72,4.11v49.33c0,3.22-2.62,5.84-5.85,5.84s-5.83-2.62-5.83-5.84v-49.33c0-3.22,2.61-5.84,5.83-5.84,1.56,0,3.02.61,4.13,1.73ZM69.35,208.13c-.33.07-.69.1-1.03.1-2.83,0-5.25-2.03-5.75-4.8l-8.77-48.55c-.57-3.17,1.55-6.22,4.73-6.8.31-.06.65-.09,1.03-.09,2.78,0,5.25,2.07,5.74,4.8l8.77,48.55c.57,3.17-1.55,6.22-4.72,6.79ZM170.94,147.99c.37,0,.72.03,1.03.09,1.53.27,2.87,1.14,3.76,2.43.89,1.29,1.24,2.84.95,4.36l-8.77,48.56c-.5,2.78-2.91,4.8-5.74,4.8-.34,0-.7-.03-1.04-.1-1.52-.27-2.86-1.13-3.75-2.42-.89-1.29-1.24-2.84-.96-4.37l8.77-48.55c.5-2.73,2.97-4.8,5.75-4.8Z"/>
          <path class="cls-4" d="M214.34,107.07h-38.77l1.64,4.55h37.13c6.37,0,11.6,5.23,11.6,11.61,0,3.18-1.31,6.09-3.41,8.19-2.1,2.09-4.99,3.4-8.18,3.4h-.09l-18.96,75.48c-1.5,5.95-6.84,10.11-12.97,10.11H48.17c-6.13,0-11.48-4.16-12.96-10.11l-16.33-64.99-2.64-10.49h-.09c-6.38,0-11.59-5.23-11.59-11.6,0-3.19,1.31-6.1,3.4-8.19,2.1-2.11,5-3.41,8.18-3.41h88.99l-20.73-57.39c-1.49-4.14.67-8.76,4.81-10.25.9-.31,1.81-.48,2.71-.48,3.28,0,6.37,2.04,7.56,5.29l22.68,62.82h38.01l-1.64-4.55h-33.17l-21.6-59.82c-1.8-4.97-6.56-8.29-11.83-8.29-1.43,0-2.85.24-4.23.74-6.53,2.35-9.92,9.56-7.58,16.07l18.53,51.3H16.14c-4.29,0-8.35,1.68-11.4,4.74-3.06,3.06-4.74,7.11-4.74,11.41,0,7.68,5.4,14.13,12.59,15.75l1.87,7.45,16.33,64.98c2,7.98,9.15,13.56,17.38,13.56h134.15c8.22,0,15.37-5.58,17.38-13.55l18.21-72.45c2.94-.66,5.64-2.15,7.84-4.35,3.06-3.06,4.74-7.11,4.74-11.4,0-8.91-7.24-16.15-16.14-16.15ZM160.72,210.37c.49.09.97.13,1.45.13,3.85,0,7.28-2.76,7.98-6.66l8.77-48.56c.8-4.39-2.15-8.63-6.53-9.43-.5-.09-.97-.12-1.45-.12-3.84,0-7.28,2.76-7.99,6.66l-8.77,48.55c-.79,4.4,2.16,8.64,6.54,9.43ZM170.94,150.27c.24,0,.44.02.61.05.95.17,1.76.7,2.31,1.49.55.78.76,1.73.59,2.65l-8.77,48.56c-.29,1.67-1.8,2.93-3.5,2.93-.21,0-.43-.02-.64-.06-1.93-.34-3.22-2.21-2.88-4.14l8.78-48.55c.29-1.67,1.8-2.93,3.5-2.93ZM115.24,145.32c-4.46,0-8.11,3.66-8.11,8.12v49.33c0,4.48,3.66,8.12,8.11,8.12s8.12-3.65,8.12-8.12v-49.33c0-2.23-.91-4.26-2.39-5.73-1.46-1.48-3.5-2.39-5.73-2.39ZM111.68,202.78v-49.33c0-1.96,1.59-3.57,3.55-3.57.95,0,1.84.36,2.5,1.04.7.69,1.07,1.58,1.07,2.52v49.33c0,1.97-1.6,3.58-3.58,3.58s-3.55-1.6-3.55-3.58ZM59.55,145.72c-.48,0-.96.03-1.45.12-4.4.8-7.33,5.04-6.55,9.43l8.77,48.56c.71,3.9,4.15,6.66,7.99,6.66.48,0,.96-.04,1.44-.13,4.41-.79,7.34-5.03,6.55-9.43l-8.77-48.55c-.7-3.9-4.15-6.66-7.98-6.66ZM68.94,205.89c-.2.04-.42.06-.63.06-1.7,0-3.21-1.27-3.51-2.94l-8.77-48.55c-.34-1.92.95-3.79,2.89-4.14.2-.03.39-.05.64-.05,1.69,0,3.2,1.26,3.5,2.93l8.77,48.55c.34,1.93-.94,3.8-2.89,4.14ZM76.3,200.94l-8.77-48.55c-.7-3.9-4.15-6.66-7.98-6.66-.48,0-.96.03-1.45.12-4.4.8-7.33,5.04-6.55,9.43l8.77,48.56c.71,3.9,4.15,6.66,7.99,6.66.48,0,.96-.04,1.44-.13,4.41-.79,7.34-5.03,6.55-9.43ZM68.94,205.89c-.2.04-.42.06-.63.06-1.7,0-3.21-1.27-3.51-2.94l-8.77-48.55c-.34-1.92.95-3.79,2.89-4.14.2-.03.39-.05.64-.05,1.69,0,3.2,1.26,3.5,2.93l8.77,48.55c.34,1.93-.94,3.8-2.89,4.14ZM172.39,145.85c-.5-.09-.97-.12-1.45-.12-3.84,0-7.28,2.76-7.99,6.66l-8.77,48.55c-.79,4.4,2.16,8.64,6.54,9.43.49.09.97.13,1.45.13,3.85,0,7.28-2.76,7.98-6.66l8.77-48.56c.8-4.39-2.15-8.63-6.53-9.43ZM162.17,205.96c-.21,0-.43-.02-.64-.06-1.93-.34-3.22-2.21-2.88-4.14l8.78-48.55c.29-1.67,1.8-2.93,3.5-2.93.24,0,.44.02.61.05.95.17,1.76.7,2.31,1.49.55.78.76,1.73.59,2.65l-8.77,48.56c-.29,1.67-1.8,2.93-3.5,2.93ZM120.97,147.71c-1.46-1.48-3.5-2.39-5.73-2.39-4.46,0-8.11,3.66-8.11,8.12v49.33c0,4.48,3.66,8.12,8.11,8.12s8.12-3.65,8.12-8.12v-49.33c0-2.23-.91-4.26-2.39-5.73ZM111.68,202.78v-49.33c0-1.96,1.59-3.57,3.55-3.57.95,0,1.84.36,2.5,1.04.7.69,1.07,1.58,1.07,2.52v49.33c0,1.97-1.6,3.58-3.58,3.58s-3.55-1.6-3.55-3.58ZM172.39,145.85c-.5-.09-.97-.12-1.45-.12-3.84,0-7.28,2.76-7.99,6.66l-8.77,48.55c-.79,4.4,2.16,8.64,6.54,9.43.49.09.97.13,1.45.13,3.85,0,7.28-2.76,7.98-6.66l8.77-48.56c.8-4.39-2.15-8.63-6.53-9.43ZM162.17,205.96c-.21,0-.43-.02-.64-.06-1.93-.34-3.22-2.21-2.88-4.14l8.78-48.55c.29-1.67,1.8-2.93,3.5-2.93.24,0,.44.02.61.05.95.17,1.76.7,2.31,1.49.55.78.76,1.73.59,2.65l-8.77,48.56c-.29,1.67-1.8,2.93-3.5,2.93ZM115.24,145.32c-4.46,0-8.11,3.66-8.11,8.12v49.33c0,4.48,3.66,8.12,8.11,8.12s8.12-3.65,8.12-8.12v-49.33c0-2.23-.91-4.26-2.39-5.73-1.46-1.48-3.5-2.39-5.73-2.39ZM111.68,202.78v-49.33c0-1.96,1.59-3.57,3.55-3.57.95,0,1.84.36,2.5,1.04.7.69,1.07,1.58,1.07,2.52v49.33c0,1.97-1.6,3.58-3.58,3.58s-3.55-1.6-3.55-3.58ZM67.53,152.39c-.7-3.9-4.15-6.66-7.98-6.66-.48,0-.96.03-1.45.12-4.4.8-7.33,5.04-6.55,9.43l8.77,48.56c.71,3.9,4.15,6.66,7.99,6.66.48,0,.96-.04,1.44-.13,4.41-.79,7.34-5.03,6.55-9.43l-8.77-48.55ZM68.94,205.89c-.2.04-.42.06-.63.06-1.7,0-3.21-1.27-3.51-2.94l-8.77-48.55c-.34-1.92.95-3.79,2.89-4.14.2-.03.39-.05.64-.05,1.69,0,3.2,1.26,3.5,2.93l8.77,48.55c.34,1.93-.94,3.8-2.89,4.14Z"/>
        </g>
        <rect class="cls-4" x="136.8" y="107.07" width="58.44" height="4.55"/>
      </g>
      <g>
        <path class="cls-4" d="M118.58,125.29h0c-4.14,1.5-8.76-.67-10.26-4.81l-23.92-66.24c-1.5-4.14.67-8.76,4.81-10.26h0c4.14-1.5,8.76.67,10.26,4.81l23.92,66.24c1.5,4.14-.67,8.76-4.81,10.26Z"/>
        <path class="cls-3" d="M225.94,123.23c0,3.19-1.31,6.09-3.41,8.19-2.09,2.09-4.99,3.4-8.18,3.4H16.15c-6.38,0-11.59-5.22-11.59-11.59,0-3.19,1.31-6.1,3.4-8.19,2.1-2.1,5.01-3.41,8.19-3.41h198.2c6.37,0,11.59,5.22,11.59,11.6Z"/>
        <path class="cls-3" d="M16.24,134.82l18.97,75.49c1.49,5.95,6.84,10.11,12.97,10.11h134.14c6.13,0,11.47-4.16,12.97-10.11l18.97-75.49H16.24ZM69.76,210.38c-4.39.8-8.63-2.15-9.43-6.54l-8.77-48.56c-.79-4.39,2.16-8.64,6.55-9.43.49-.09.97-.13,1.44-.13,3.83,0,7.28,2.76,7.99,6.67l8.77,48.56c.78,4.39-2.15,8.64-6.55,9.43ZM123.37,202.78c0,4.47-3.65,8.12-8.12,8.12s-8.11-3.65-8.11-8.12v-49.33c0-4.47,3.65-8.12,8.11-8.12,2.23,0,4.27.91,5.73,2.39,1.48,1.47,2.39,3.5,2.39,5.73v49.33ZM178.93,155.28l-8.77,48.56c-.78,4.39-5.03,7.34-9.43,6.54-4.39-.8-7.34-5.04-6.54-9.43l8.77-48.56c.71-3.9,4.15-6.67,7.99-6.67.48,0,.96.03,1.44.13,4.39.8,7.34,5.04,6.54,9.43Z"/>
        <polygon class="cls-4" points="214.25 134.82 213.44 138.08 17.23 138.73 16.24 134.82 214.25 134.82"/>
      </g>
      <g>
        <path class="cls-2" d="M223.53,100.8c-.05.1-.1.2-.16.29-.1.2-.26.51-.48.91-.06.09-.11.2-.18.31-.09.14-.18.31-.28.48-.11.2-.23.39-.36.58-.24.38-.53.81-.85,1.28-6.1,8.86-25.8,30.32-75.99,35.86-26.09-44.26-20.08-73.12-16.66-82.82.05-.15.1-.31.16-.46.1-.28.2-.56.31-.84.14-.38.28-.72.41-1,.38-.9.63-1.34.63-1.34,7.15-14.29,24.52-20.07,38.8-12.93,8.57,4.29,14.07,12.25,15.56,21.03,7.91-4.07,17.59-4.44,26.16-.15,14.29,7.15,20.07,24.52,12.92,38.81Z"/>
        <path class="cls-4" d="M145.22,142.79c-.8,0-1.55-.42-1.96-1.12-26.39-44.76-20.57-74.17-16.84-84.74.04-.14.12-.36.21-.57.07-.21.19-.52.31-.83.13-.36.3-.76.45-1.09.4-.94.69-1.46.72-1.52,3.68-7.36,10.09-12.91,17.99-15.54,7.9-2.63,16.36-2.03,23.81,1.7,7.98,3.99,13.86,11.27,16.16,19.83,8.22-3.29,17.58-2.94,25.56,1.05,15.38,7.7,21.64,26.48,13.94,41.86-.06.12-.13.25-.2.38-.12.23-.28.54-.5.93l-2.07-.97,1.98,1.12-.38.66c-.13.22-.27.45-.41.67-.26.41-.56.87-.91,1.36-6.32,9.18-26.55,31.18-77.6,36.81-.08,0-.17.01-.25.01ZM155.98,40.31c-2.83,0-5.68.46-8.44,1.38-6.75,2.25-12.23,6.99-15.41,13.36-.08.14-.28.52-.57,1.22-.13.28-.25.57-.36.88-.13.33-.22.58-.31.84-.08.2-.11.3-.14.39-3.5,9.93-8.86,37.31,15.71,79.7,48.1-5.67,66.99-26.13,72.9-34.72.32-.45.58-.85.81-1.21.1-.16.2-.32.3-.48l.37-.63c.05-.09.1-.18.15-.25.14-.25.27-.52.36-.7.04-.07.09-.16.13-.23l.04-.08h0c6.58-13.14,1.24-29.18-11.91-35.76-7.56-3.78-16.57-3.73-24.1.14-.65.33-1.41.34-2.06.01-.65-.32-1.1-.94-1.22-1.65-1.41-8.35-6.77-15.59-14.34-19.37-3.76-1.88-7.81-2.83-11.89-2.83Z"/>
      </g>
      <g>
        <g>
          <path class="cls-3" d="M190.05,50.3s-33.23-21.58,0-48.59c33.25,27.01,0,48.59,0,48.59Z"/>
          <path class="cls-4" d="M190.05,52c-.32,0-.65-.09-.93-.28-.6-.39-14.74-9.74-15.52-24.21-.5-9.32,4.68-18.45,15.37-27.14.63-.51,1.53-.51,2.15,0,10.7,8.69,15.87,17.82,15.38,27.14-.77,14.47-14.92,23.82-15.52,24.21-.28.18-.61.28-.93.28ZM190.05,3.92c-9.06,7.68-13.45,15.54-13.04,23.39.56,10.73,10,18.62,13.04,20.89,3.04-2.27,12.48-10.16,13.04-20.89.41-7.85-3.98-15.72-13.04-23.39Z"/>
        </g>
        <path class="cls-4" d="M190.05,52c-.94,0-1.71-.76-1.71-1.71V1.71c0-.94.76-1.71,1.71-1.71s1.71.76,1.71,1.71v48.59c0,.94-.76,1.71-1.71,1.71Z"/>
        <path class="cls-4" d="M190.05,26.24c-.49,0-.96-.21-1.29-.59l-10.31-11.87c-.62-.71-.54-1.79.17-2.41.71-.62,1.79-.54,2.41.17l9.02,10.39,9.02-10.39c.62-.71,1.69-.79,2.41-.17.71.62.79,1.7.17,2.41l-10.31,11.87c-.32.37-.79.59-1.29.59Z"/>
        <path class="cls-4" d="M190.05,42.68c-.45,0-.89-.18-1.21-.5l-14.77-14.76c-.67-.67-.67-1.75,0-2.41.67-.67,1.75-.67,2.41,0l13.49,13.48,13.48-15.26c.62-.71,1.7-.77,2.41-.15.71.62.77,1.7.15,2.41l-14.68,16.62c-.31.35-.76.56-1.23.58-.02,0-.04,0-.05,0Z"/>
      </g>
    </g>
  </g>
</svg>