<?xml version="1.0" encoding="UTF-8"?><svg id="Layer_1" xmlns="http://www.w3.org/2000/svg" xmlns:xlink="http://www.w3.org/1999/xlink" viewBox="0 0 385.5 258"><defs><style>.cls-1{fill:url(#linear-gradient-8);}.cls-2{fill:url(#linear-gradient-7);}.cls-3{fill:url(#linear-gradient-5);}.cls-4{fill:url(#linear-gradient-6);}.cls-5{fill:url(#linear-gradient-9);}.cls-6{fill:url(#linear-gradient-4);}.cls-7{fill:url(#linear-gradient-3);}.cls-8{fill:url(#linear-gradient-2);}.cls-9{fill:url(#linear-gradient);}.cls-10{fill:#705341;}.cls-11{fill:#fff;}.cls-12{fill:url(#linear-gradient-10);}.cls-13{fill:url(#linear-gradient-11);}.cls-14{fill:red;}</style><linearGradient id="linear-gradient" x1="266.53" y1="-949.8" x2="1904.96" y2="-949.8" gradientTransform="translate(-49.23 62.46) rotate(45) scale(.21)" gradientUnits="userSpaceOnUse"><stop offset="0" stop-color="#7e5436"/><stop offset=".1" stop-color="#7e5436"/><stop offset=".27" stop-color="#be7429"/><stop offset=".43" stop-color="#ebbc20"/><stop offset=".55" stop-color="#f1e794"/><stop offset=".7" stop-color="#f1e794"/><stop offset=".85" stop-color="#e0b01c"/><stop offset="1" stop-color="#e0b01c"/></linearGradient><linearGradient id="linear-gradient-2" x1="-2672.57" y1="2370.16" x2="-1034.24" y2="2370.16" gradientTransform="translate(-408.73 200.77) rotate(-129.99) scale(.18)" xlink:href="#linear-gradient"/><linearGradient id="linear-gradient-3" x1="19120.9" y1="238.02" x2="20761.63" y2="238.02" gradientTransform="translate(-322.19 157.55) scale(.02)" gradientUnits="userSpaceOnUse"><stop offset="0" stop-color="#ebb625"/><stop offset=".2" stop-color="#ebb625"/><stop offset=".4" stop-color="#f7e864"/><stop offset=".66" stop-color="#ebb625"/><stop offset="1" stop-color="#ebb625"/></linearGradient><linearGradient id="linear-gradient-4" x1="-3438.07" y1="18082.26" x2="7354.1" y2="18082.26" gradientTransform="translate(-343.06 102.85) rotate(-70.02) scale(.02)" gradientUnits="userSpaceOnUse"><stop offset="0" stop-color="#ebb625"/><stop offset=".22" stop-color="#ebb625"/><stop offset=".47" stop-color="#f7e864"/><stop offset=".77" stop-color="#ebb625"/><stop offset="1" stop-color="#ebb625"/></linearGradient><linearGradient id="linear-gradient-5" x1="5013.97" y1="3959.01" x2="6652.32" y2="3959.01" gradientTransform="translate(-288.55 110.85) rotate(-30.02) scale(.06)" gradientUnits="userSpaceOnUse"><stop offset="0" stop-color="#ebb625"/><stop offset=".15" stop-color="#ebb625"/><stop offset=".3" stop-color="#f7e864"/><stop offset=".5" stop-color="#ebb625"/><stop offset=".75" stop-color="#f0d661"/><stop offset="1" stop-color="#ebb625"/></linearGradient><linearGradient id="linear-gradient-6" x1="10290.14" y1="5682.9" x2="11928.52" y2="5682.9" gradientTransform="translate(-370.25 151.27) rotate(-25.08) scale(.03)" gradientUnits="userSpaceOnUse"><stop offset="0" stop-color="#ebb625"/><stop offset=".23" stop-color="#ebb625"/><stop offset=".47" stop-color="#f7e864"/><stop offset=".67" stop-color="#ebb625"/><stop offset="1" stop-color="#ebb625"/></linearGradient><linearGradient id="linear-gradient-7" x1="5479.89" y1="4214.22" x2="7118.28" y2="4214.22" gradientTransform="translate(-247.74 118.17) rotate(-29.99) scale(.06)" xlink:href="#linear-gradient-5"/><linearGradient id="linear-gradient-8" x1="10965.5" y1="7257.04" x2="12603.91" y2="7257.04" gradientTransform="translate(-192.29 117.35) rotate(-29.91) scale(.03)" gradientUnits="userSpaceOnUse"><stop offset="0" stop-color="#ebb625"/><stop offset=".07" stop-color="#ebb625"/><stop offset=".33" stop-color="#f7e864"/><stop offset=".53" stop-color="#ebb625"/><stop offset="1" stop-color="#ebb625"/></linearGradient><linearGradient id="linear-gradient-9" x1="8158.3" y1="5721.23" x2="9796.69" y2="5721.23" gradientTransform="translate(-202.64 160.04) rotate(-30.04) scale(.04)" gradientUnits="userSpaceOnUse"><stop offset="0" stop-color="#e6bc2a"/><stop offset=".57" stop-color="#e6bc2a"/><stop offset=".75" stop-color="#f5e479"/><stop offset=".93" stop-color="#e6bc2a"/><stop offset="1" stop-color="#e6bc2a"/></linearGradient><linearGradient id="linear-gradient-10" x1="4426.54" y1="3623.17" x2="6065.01" y2="3623.17" gradientTransform="translate(-123.64 112.61) rotate(-30.01) scale(.07)" gradientUnits="userSpaceOnUse"><stop offset="0" stop-color="#ebb625"/><stop offset=".3" stop-color="#ebb625"/><stop offset=".55" stop-color="#f7e864"/><stop offset=".8" stop-color="#ebb625"/><stop offset="1" stop-color="#ebb625"/></linearGradient><linearGradient id="linear-gradient-11" x1="11213.12" y1="7728.69" x2="13473.25" y2="7728.69" gradientTransform="translate(-134.18 124.72) rotate(-29.89) scale(.03)" gradientUnits="userSpaceOnUse"><stop offset="0" stop-color="#ebb625"/><stop offset=".2" stop-color="#ebb625"/><stop offset=".57" stop-color="#f7e864"/><stop offset=".95" stop-color="#ebb625"/><stop offset="1" stop-color="#ebb625"/></linearGradient></defs><path id="path36" class="cls-9" d="M385.27,87.76c.66-10.75-.09-21.03-2.26-30.56-2.17-9.53-5.85-18.11-11.03-25.75-5.75-8.11-12.26-14.43-19.52-19.14-7.26-4.62-15.09-7.92-23.29-9.81-8.21-1.89-16.6-2.73-25.18-2.45-8.49.19-16.98,1.23-25.28,2.92-8.21,1.7-16.13,3.77-23.48,6.32-7.36,2.45-13.96,5-19.81,7.64-5.85,2.55-10.66,4.9-14.43,6.98-11.69,6.32-21.97,10.94-30.93,13.86-8.96,2.92-16.69,4.53-23.11,4.72-6.51.19-11.98-.57-16.32-2.36-4.34-1.79-7.73-4.34-10.19-7.36-2.45-3.21-4.15-6.6-5.09-10.28-.94-3.68-1.23-7.36-.94-10.94l-2.55,10.85c0,3.11.47,6.41,1.6,9.71,1.13,3.3,2.92,6.41,5.38,9.34,2.45,2.92,5.75,5.38,10,7.36,4.15,2.07,9.24,3.3,15.28,3.87,6.13.66,13.39.28,21.69-1.04,8.3-1.32,17.92-3.96,28.67-7.73l13.11-4.9c5.28-1.98,11.22-4.06,17.92-6.13,6.6-2.17,13.68-3.87,21.22-5.38,7.45-1.41,15.18-2.17,23.01-2.26,7.83,0,15.56.85,23.29,2.92,7.64,1.98,14.99,5.28,21.97,10.09,6.98,4.81,13.39,11.32,19.14,19.62,5.75,8.3,9.81,17.45,12.07,27.16,2.45,9.81,3.21,19.9,2.36,30.37-.85,10.47-3.21,20.84-6.98,31.22-3.77,10.37-9.05,20.28-15.66,29.71-6.51,9.53-14.43,18.2-23.58,26.03-9.15,7.92-19.52,14.52-31.03,20.09-11.51,5.47-24.14,9.43-37.82,11.79l-3.68,12.17c13.3-2.45,25.75-6.51,37.35-12.17,11.69-5.75,22.45-12.64,32.25-20.94,9.9-8.21,18.67-17.26,26.5-27.35,7.83-10,14.62-20.47,20.18-31.59,5.66-10.94,10.09-22.07,13.39-33.39,3.21-11.41,5.09-22.45,5.75-33.2h0Z"/><path id="path56" class="cls-8" d="M227.11,206.88c-4.9-1.32-10.75-1.79-17.45-1.51-6.7.28-14.34,1.6-23.01,3.87-8.68,2.36-18.48,5.94-29.33,10.75-4.62,2.17-10.28,4.15-16.79,6.13-6.51,1.89-13.58,3.49-21.31,4.81-7.64,1.13-15.47,1.7-23.58,1.6-8.11-.19-16.13-1.13-23.95-3.21-7.73-1.98-15.09-5.28-21.88-9.71-6.79-4.53-12.73-10.56-17.82-18.11-5.09-7.54-8.96-16.88-11.6-28.1-2.83-12.26-3.49-24.43-2.17-36.4,1.32-11.88,4.34-23.39,9.15-34.33,4.72-10.94,10.75-21.13,18.01-30.46,7.45-9.34,15.75-17.64,24.9-24.71,9.34-7.26,19.14-12.92,29.52-17.26,10.37-4.24,21.03-6.88,31.78-7.73l2.55-10.85c-10.28,1.79-20.37,5-30.46,9.43-10.09,4.53-19.81,10.19-29.24,16.88-9.34,6.79-18.2,14.52-26.41,23.11-8.2,8.58-15.56,17.92-22.07,27.92-6.51,10-11.88,20.47-16.13,31.5-4.34,11.03-7.17,22.26-8.77,33.76-1.51,11.51-1.41,23.2.47,34.89,1.79,11.69,5.09,21.79,9.81,30.08,4.62,8.49,10.37,15.28,17.07,20.75,6.6,5.38,13.96,9.53,21.97,12.35,7.92,2.83,16.13,4.62,24.62,5.28,8.58.66,16.88.47,25.18-.57,8.3-1.04,16.13-2.83,23.39-5.19,7.36-2.36,13.77-5.19,19.43-8.39,14.05-8.21,26.5-14.52,37.44-18.86,10.94-4.43,20.47-7.17,28.67-8.49,8.11-1.23,14.9-1.23,20.47,0,5.56,1.13,9.9,3.3,13.11,6.22,3.21,3.11,5.28,6.6,6.41,10.85,1.13,4.15,1.23,8.58.47,13.2l3.58-12.07c0-2.07-.28-4.34-1.13-6.98-.94-2.64-2.36-5.38-4.34-7.92-2.07-2.73-4.72-5.19-8.11-7.45-3.3-2.17-7.54-3.87-12.45-5.09h0Z"/><path id="path58" class="cls-11" d="M267,27.5c-7.54,1.41-14.62,3.21-21.22,5.28-6.7,2.17-12.64,4.24-17.92,6.22l-13.01,4.9c-10.85,3.77-20.47,6.32-28.76,7.64-8.3,1.41-15.56,1.7-21.69,1.13-6.04-.57-11.13-1.89-15.37-3.87-4.15-1.98-7.45-4.43-9.9-7.36-2.55-3.02-4.24-6.04-5.38-9.34-1.04-3.3-1.6-6.6-1.6-9.71-10.75.85-21.41,3.39-31.78,7.73-10.37,4.34-20.18,10-29.42,17.16-9.24,7.17-17.54,15.47-24.9,24.8-7.36,9.34-13.39,19.43-18.11,30.46-4.72,10.94-7.73,22.35-9.15,34.33-1.32,11.98-.66,24.05,2.17,36.4,2.64,11.22,6.51,20.56,11.6,28.1,5.09,7.54,11.03,13.58,17.82,18.01,6.88,4.53,14.15,7.83,21.97,9.81,7.83,1.98,15.75,3.02,23.86,3.21,8.11.09,16.03-.47,23.67-1.7,7.64-1.23,14.71-2.83,21.31-4.72,6.41-1.98,12.07-3.96,16.69-6.13,10.85-4.81,20.65-8.39,29.33-10.75,8.68-2.26,16.41-3.58,23.01-3.87,6.79-.28,12.54.19,17.45,1.51,5,1.13,9.15,2.92,12.54,5.09,3.3,2.26,6.04,4.72,8.02,7.36,2.08,2.64,3.49,5.28,4.34,8.02.85,2.55,1.23,4.9,1.23,6.98,13.68-2.36,26.22-6.32,37.82-11.88,11.51-5.47,21.88-12.07,31.03-19.99,9.15-7.92,17.07-16.6,23.58-26.03,6.7-9.43,11.88-19.43,15.66-29.8,3.77-10.28,6.13-20.65,6.98-31.12.85-10.47.09-20.56-2.26-30.37-2.36-9.71-6.41-18.86-12.17-27.26-5.75-8.21-12.17-14.71-19.14-19.52-6.98-4.81-14.34-8.11-21.97-10.19-7.73-1.98-15.47-2.92-23.29-2.83-7.83.09-15.56.85-23.01,2.26h0Z"/><path id="path60" class="cls-14" d="M294.92,52.96h-2.92c-.57,0-1.04.19-1.41.57-.38.38-.57.85-.57,1.41v7.64h-1.51c-.28,0-.66.19-.94.47-.28.19-.47.57-.47,1.04v1.98c0,.47.19.85.47,1.04.28.28.66.38.94.47h1.51v12.45c0,1.51.38,2.83,1.04,4.06.66,1.32,1.6,2.26,2.92,3.02,1.23.75,2.73,1.13,4.43,1.23h2.73l1.04-.47.47-1.13v-2.26c0-.47-.09-.85-.47-1.04-.19-.38-.57-.47-1.04-.47h-.38c-1.32-.09-2.17-.47-2.92-1.13-.66-.66-.94-1.6-.94-2.74v-11.51h4.53c.47-.09.76-.19,1.04-.47.19-.19.38-.57.38-1.04v-1.98c0-.47-.19-.85-.38-1.04-.28-.28-.66-.47-1.04-.47h-4.53v-7.64c-.09-.57-.28-1.04-.66-1.41-.28-.38-.75-.57-1.32-.57Z"/><path id="path62" class="cls-14" d="M311.33,54.94c0-.57-.19-1.04-.57-1.41-.38-.38-.94-.57-1.51-.57h-2.92c-.57,0-1.13.19-1.51.57-.38.38-.57.85-.57,1.41v31.31c0,.57.19,1.04.66,1.41.38.38.85.57,1.41.57h2.92c.57,0,1.13-.19,1.51-.57.38-.38.57-.85.57-1.41v-31.31Z"/><path id="path64" class="cls-14" d="M319.34,63.71c-1.98,1.23-3.39,2.83-4.43,4.9-.94,1.98-1.51,4.15-1.51,6.51s.57,4.62,1.6,6.7c1.04,2.07,2.55,3.77,4.53,5,1.89,1.32,4.24,1.89,6.88,1.98,1.89,0,3.58-.38,5.28-.94,1.7-.57,3.11-1.51,4.34-2.64,1.13-1.13,1.98-2.45,2.26-4.06.09-.38,0-.66-.19-1.04-.19-.28-.47-.47-.94-.47h-3.96c-.66,0-1.23.28-1.6.85-1.13,1.7-2.83,2.55-5.19,2.55-1.79-.09-3.11-.66-4.24-1.79-1.04-1.04-1.6-2.36-1.79-3.96h16.69c1.51,0,2.26-.75,2.17-2.17,0-2.26-.47-4.43-1.32-6.51-.85-1.98-2.36-3.68-4.24-4.9-1.89-1.32-4.34-1.98-7.26-1.98s-5.19.66-7.07,1.98M322.36,68.52c1.04-.94,2.45-1.41,4.06-1.41,1.51,0,2.92.47,3.96,1.41,1.13,1.04,1.79,2.17,1.98,3.68h-11.88c.09-1.51.75-2.64,1.89-3.68Z"/><path id="path66" class="cls-14" d="M351.13,82.2c-.85-.85-1.79-1.32-3.02-1.23-1.13,0-2.17.38-2.92,1.23-.75.75-1.13,1.79-1.13,2.92s.38,2.17,1.23,2.92c.76.75,1.7,1.23,2.92,1.23s2.17-.47,2.92-1.23c.75-.85,1.23-1.79,1.23-2.92,0-1.23-.47-2.17-1.23-2.92M348.11,81.63c1.04,0,1.89.28,2.55,1.04.66.66,1.04,1.41,1.04,2.45,0,.94-.38,1.7-1.04,2.45-.66.66-1.51.94-2.45.94s-1.79-.28-2.45-.94c-.66-.66-1.04-1.51-1.04-2.45,0-1.04.38-1.79,1.04-2.45.66-.75,1.51-1.04,2.36-1.04Z"/><path id="path68" class="cls-14" d="M348.39,82.76l-1.79.09v4.62h.75v-2.17h.75l1.23,2.17.75-.09-1.23-2.17c.75,0,1.13-.38,1.13-1.23,0-.75-.47-1.23-1.6-1.23M347.26,83.52l1.13-.09c.66,0,.94.19.94.57,0,.47-.28.66-.94.66h-1.04l-.09-1.13Z"/><path id="path70" class="cls-14" d="M257.67,63.71c-1.89-1.32-4.34-1.98-7.36-1.98-2.83,0-5.19.66-7.07,1.98-1.89,1.23-3.4,2.83-4.34,4.9-1.04,1.98-1.51,4.15-1.51,6.51s.47,4.62,1.6,6.7c1.04,2.07,2.55,3.77,4.53,5,1.89,1.32,4.15,1.89,6.79,1.98,1.89,0,3.68-.38,5.37-.94,1.7-.57,3.11-1.51,4.34-2.64,1.13-1.13,1.98-2.45,2.26-4.06.09-.38,0-.66-.19-1.04-.19-.28-.47-.47-.94-.47h-3.96c-.75,0-1.32.28-1.7.85-1.04,1.7-2.83,2.55-5.19,2.55-1.7-.09-3.11-.66-4.24-1.79-1.04-1.04-1.6-2.36-1.7-3.96h16.69c1.51,0,2.26-.75,2.17-2.17,0-2.26-.47-4.43-1.32-6.51-.94-1.98-2.36-3.68-4.24-4.9M246.35,68.52c1.04-.94,2.36-1.41,3.96-1.41s2.92.47,4.06,1.41c1.13,1.04,1.79,2.17,1.98,3.68h-11.98c.19-1.51.85-2.64,1.98-3.68Z"/><path id="path72" class="cls-14" d="M285.96,57.02v-2.17c0-.47-.19-.85-.47-1.13l-1.04-.47h-54.04c-.66.09-1.13.28-1.6.66-.38.47-.57.94-.57,1.6l.09,21.22-12.17-22.07c-.38-.57-.85-.94-1.41-1.32-.57-.38-1.23-.57-2.17-.66h-4.43c-.57,0-1.13.19-1.51.66-.47.47-.66.94-.66,1.6v31.12c0,.57.19,1.13.66,1.6.38.38.94.57,1.51.57h2.83c.66,0,1.23-.19,1.6-.57.47-.47.66-1.04.66-1.6l-.19-21.88,12.26,22.07,1.41,1.41c.57.38,1.23.57,2.07.57h4.06c.66,0,1.13-.19,1.6-.57.47-.47.66-1.04.66-1.6v-27.54h49.32c.38,0,.76-.09,1.04-.38.28-.28.47-.66.47-1.13h0Z"/><path id="path74" class="cls-14" d="M280.96,69.84l1.13.09h3.21c.28,0,.57-.09.85-.28.19-.19.28-.47.28-.85,0-1.89-1.04-3.49-3.02-4.9-1.98-1.41-4.53-2.17-7.73-2.17s-6.04.75-7.92,2.17c-1.89,1.41-2.92,3.39-2.92,5.94,0,1.89.57,3.4,1.89,4.62,1.32,1.13,2.92,1.98,4.81,2.45l5.94,1.51c.75.09,1.41.38,1.98.66.57.38.85.85.85,1.51,0,.94-.47,1.7-1.32,2.07-.94.38-1.98.66-3.21.66-1.13,0-2.17-.28-3.11-.75-.94-.47-1.6-1.13-1.89-1.89-.19-.47-.47-.66-.85-.85l-1.23-.19h-3.3c-.28,0-.47.09-.76.38-.28.19-.38.47-.38.85v.47c0,1.23.47,2.45,1.41,3.49,1.04,1.13,2.45,2.07,4.15,2.83,1.7.66,3.77,1.04,5.94,1.13,1.7,0,3.39-.28,5.09-.85,1.79-.47,3.3-1.32,4.43-2.55,1.23-1.23,1.89-2.92,1.98-5-.09-1.89-.66-3.4-1.79-4.72-1.13-1.23-2.74-2.08-4.72-2.64l-8.21-2.26c-.57-.38-.85-.85-.85-1.41,0-.94.38-1.6,1.13-1.98.75-.38,1.7-.57,2.83-.57,1.23,0,2.17.19,2.92.66.94.28,1.41.85,1.79,1.7.09.38.38.57.57.66h0Z"/><path id="path76" class="cls-14" d="M315.1,55.79v1.51c.09.66.47,1.04,1.13,1.13h20.65c.47-.09.85-.19,1.23-.57.28-.28.47-.66.47-1.13v-2.55c0-.47-.19-.85-.47-1.23-.38-.38-.75-.57-1.23-.47l-20.65,1.98-.85.47c-.19.28-.28.57-.28.85h0Z"/><path id="path90" class="cls-7" d="M113.75,152.93l4.62-15.75-34.8,45.93,3.58,4.9v-.09l26.6-34.99Z"/><path id="path104" class="cls-6" d="M94.13,92.1l-3.39-4.72,8.2,40.84,1.98-2.55-6.79-33.57Z"/><path id="path120" class="cls-3" d="M167.13,92.01l-3.58-4.72-24.14,82.99c-1.13,3.96-2.83,6.7-5,8.3-2.17,1.6-5.28,2.36-9.34,2.26h-19.52l4.06,4.53h19.24c3.02.09,5.47-.38,7.54-1.13,1.98-.75,3.49-2.07,4.9-4.06,1.23-1.79,2.36-4.34,3.21-7.64l22.63-80.54Z"/><path id="path134" class="cls-4" d="M76.4,147.84l-1.98-10.19-9.53,32.63c-1.13,3.96-2.73,6.7-5,8.3-2.17,1.51-5.28,2.36-9.24,2.26h-18.11l3.87,4.53h18.11c2.83.09,5.28-.28,7.17-.94,1.89-.66,3.4-1.98,4.62-3.77,1.13-1.7,2.26-4.24,3.11-7.45l6.98-25.37Z"/><path id="path136" class="cls-10" d="M133.46,87.86c-1.98.57-3.68,1.51-5.09,2.64-1.41,1.23-2.92,2.73-4.34,4.53l-25.09,33.2-8.3-41.21h-17.35c-3.68,0-6.7.57-9.05,1.7-2.45,1.04-4.34,2.73-5.75,4.9-1.51,2.17-2.73,4.9-3.58,8.11l-22.35,79.13h18.11c3.96.09,7.07-.66,9.24-2.26,2.26-1.6,3.87-4.34,5-8.3l9.53-32.63,9.15,45.55,34.8-46.02-12.83,43.67h19.52c3.96.09,7.07-.66,9.34-2.26,2.17-1.6,3.87-4.34,4.9-8.3l24.33-83.28h-22.73c-2.92,0-5.47.28-7.45.85h0Z"/><path id="path152" class="cls-2" d="M206.64,100.78l-3.11-4.34-21.6,74.03c-1.04,3.96-2.73,6.7-4.9,8.3-2.26,1.6-5.28,2.36-9.34,2.26h-19.62l3.77,4.62h18.77c2.73,0,5.09-.38,6.98-.94,1.89-.66,3.49-1.79,4.81-3.3,1.32-1.6,2.26-3.68,3.11-6.32l21.12-74.32Z"/><path id="path154" class="cls-10" d="M184.39,96.25c-2.64-.09-4.9.28-6.79.85-1.89.66-3.39,1.7-4.62,3.3-1.23,1.41-2.26,3.58-3.02,6.32l-21.88,74.32h19.62c4.06.09,7.07-.66,9.34-2.26,2.17-1.6,3.77-4.34,4.9-8.3l21.69-74.22h-19.24Z"/><path id="path168" class="cls-1" d="M249.27,100.4l-3.77-4.43-19.33,66.39h4.9l18.2-61.96Z"/><path id="path182" class="cls-5" d="M255.5,174.72l2.55-9.43-3.68-3.02-2.36,7.92c-1.04,3.87-2.74,6.6-5.09,8.21-2.36,1.6-5.56,2.36-9.71,2.26h-47.16l3.68,4.62h46.97c2.83,0,5.19-.28,7.07-.94,1.89-.66,3.49-1.79,4.81-3.3,1.23-1.51,2.17-3.68,2.92-6.32h0Z"/><path id="path184" class="cls-10" d="M214.94,99.93c-1.32,1.6-2.36,3.68-3.11,6.41l-21.79,74.32h47.25c4.06.09,7.36-.66,9.62-2.26,2.36-1.6,4.06-4.34,5.19-8.21l2.26-7.92h-28.2l19.33-66.39h-19.24c-2.64,0-4.9.28-6.7.85-1.89.66-3.39,1.79-4.62,3.21h0Z"/><path id="path198" class="cls-12" d="M338.02,107.66c-2.45-2.92-5.38-5.38-8.68-7.26-3.4-1.98-7.17-3.4-11.22-4.24,6.32,1.6,11.51,4.15,15.56,7.83,4.06,3.68,6.7,8.39,8.02,14.33,1.32,5.94.94,13.02-.94,21.41-1.51,6.79-3.58,12.64-5.94,17.45-2.45,4.81-5.38,8.87-8.58,12.07-3.3,3.21-6.98,5.85-10.94,7.83-4.06,1.98-8.49,3.49-13.11,4.62l-6.51.94-8.3.28-8.02-.57c-3.11-.47-6.04-1.13-8.68-1.98-2.64-.85-5-1.98-7.26-3.49-2.26-1.51-4.15-3.4-5.85-5.75,1.32,2.92,2.92,5.28,4.72,7.17,2.64,2.36,5.85,4.15,9.43,5.56,3.58,1.41,7.26,2.45,11.13,3.11l8.02.57,8.3-.28,6.41-1.04c4.72-1.04,9.15-2.64,13.11-4.62,3.96-1.98,7.64-4.53,10.94-7.83,3.21-3.21,6.13-7.17,8.58-12.07,2.36-4.81,4.43-10.56,6.04-17.45,1.6-7.36,1.79-14.24.66-20.47-1.13-6.22-3.4-11.69-6.88-16.13h0Z"/><path id="path212" class="cls-13" d="M305.67,118.88c1.89,0,3.3.28,4.53.75,1.23.47,2.17,1.13,2.92,2.08-.38-2.17-1.32-4.06-3.02-5.38-1.7-1.23-4.15-1.98-7.64-1.98-3.11,0-5.85.75-8.02,2.07-2.26,1.23-4.15,3.11-5.66,5.47-1.6,2.17-2.83,4.81-3.96,7.64-1.04,2.92-1.98,5.94-2.74,9.05-.85,3.3-1.6,6.6-1.89,9.62-.47,3.21-.38,5.94.19,8.2.57,2.45,1.98,4.15,4.24,5.38-.94-1.32-1.41-2.92-1.51-4.9,0-1.89.09-3.96.57-6.32l1.7-7.45c.76-3.11,1.6-6.13,2.64-8.96,1.13-2.83,2.36-5.47,3.96-7.83,1.51-2.26,3.49-3.96,5.66-5.38,2.26-1.32,4.9-1.98,8.02-2.08h0Z"/><path id="path214" class="cls-10" d="M310.86,94.74l-12.07-.28-6.22.66c-3.87.66-7.83,1.7-11.69,3.11-3.96,1.41-7.73,3.49-11.32,6.22-3.49,2.83-6.7,6.6-9.52,11.32-2.92,4.72-5.09,10.75-6.88,18.01-2.55,11.6-2.55,21.22.09,28.67l.38,1.23c1.6,4.24,3.68,7.64,6.13,10.09,2.55,2.55,5.37,4.43,8.68,5.75,3.21,1.32,6.89,2.26,10.94,2.83l8.02.57,8.3-.28,6.51-.94c4.62-1.13,9.05-2.64,13.11-4.72,3.96-1.89,7.64-4.53,10.94-7.73,3.21-3.21,6.13-7.26,8.58-12.07,2.36-4.81,4.43-10.66,5.94-17.45,2.08-9.34,2.26-17.26.38-23.48-1.79-6.32-5.38-11.22-10.56-14.71-5.19-3.49-11.69-5.75-19.71-6.79M310.1,116.43c1.7,1.23,2.74,3.11,3.11,5.47.38,2.17.28,4.81-.19,7.64-.47,2.92-1.13,5.94-1.98,9.05-.75,3.11-1.79,6.13-3.02,8.96-1.23,3.02-2.64,5.56-4.34,7.92-1.6,2.26-3.58,4.06-5.66,5.47-2.17,1.32-4.53,1.98-7.17,2.07-3.4-.09-5.94-.75-7.64-2.07-1.7-1.41-2.73-3.21-3.02-5.47-.38-2.36-.38-4.9,0-7.92.47-2.83,1.13-5.85,1.89-8.96.76-3.21,1.7-6.22,2.74-9.05,1.04-2.83,2.26-5.47,3.87-7.64,1.6-2.36,3.49-4.24,5.75-5.47,2.17-1.32,4.9-2.07,8.02-2.07,3.49,0,6.04.75,7.64,2.07h0Z"/></svg>